<svg xmlns="http://www.w3.org/2000/svg" id="settings" viewBox="0 0 1000 1000">
  <path d="M633.25 406.34c42.64 0 78.43-29.43 88.39-69.02h118.88v-44.45h-118.88c-9.96-39.58-45.76-69.02-88.39-69.02s-78.43 29.43-88.39 69.02H159.47v44.45h385.39c9.96 39.58 45.76 69.02 88.39 69.02ZM633.25 268.3c25.8 0 46.79 20.99 46.79 46.79s-20.99 46.79-46.79 46.79-46.79-20.99-46.79-46.79 20.99-46.79 46.79-46.79ZM159.47 707.13h385.39c9.96 39.59 45.76 69.02 88.39 69.02s78.43-29.43 88.39-69.02h118.88v-44.45h-118.88c-9.96-39.58-45.76-69.02-88.39-69.02s-78.43 29.43-88.39 69.02H159.47v44.45ZM633.25 638.12c25.8 0 46.79 20.99 46.79 46.79s-20.99 46.79-46.79 46.79-46.79-20.99-46.79-46.79 20.99-46.79 46.79-46.79ZM159.47 522.23h118.88c9.96 39.59 45.76 69.02 88.39 69.02s78.43-29.43 88.39-69.02h385.39v-44.45h-385.39c-9.96-39.58-45.76-69.02-88.39-69.02s-78.43 29.43-88.39 69.02h-118.88v44.45ZM366.75 453.21c25.8 0 46.79 20.99 46.79 46.79s-20.99 46.79-46.79 46.79-46.79-20.99-46.79-46.79 20.99-46.79 46.79-46.79Z"></path>
</svg>
